<svg width="431" height="120" viewBox="0 0 431 120" fill="none" xmlns="http://www.w3.org/2000/svg">
<path d="M10.2668 1.35132H27.1418L49.0168 66.4138L70.8293 1.35132H87.7043L55.8293 92.3513H42.1418L10.2668 1.35132ZM0.516785 1.35132H17.7043L20.8918 68.7888V92.3513H0.516785V1.35132ZM80.2668 1.35132H97.5168V92.3513H77.0793V68.7888L80.2668 1.35132Z" fill="#84B9E1"/>
<path d="M132.017 84.5388L149.704 24.7263H170.704L143.517 102.476C142.933 104.185 142.142 106.018 141.142 107.976C140.183 109.935 138.871 111.81 137.204 113.601C135.579 115.393 133.496 116.851 130.954 117.976C128.413 119.101 125.288 119.664 121.579 119.664C119.704 119.664 118.246 119.56 117.204 119.351C116.204 119.185 114.871 118.893 113.204 118.476L113.142 104.289C113.683 104.289 114.163 104.289 114.579 104.289C115.038 104.33 115.496 104.351 115.954 104.351C118.288 104.351 120.163 104.101 121.579 103.601C123.038 103.101 124.163 102.351 124.954 101.351C125.788 100.393 126.454 99.1638 126.954 97.6638L132.017 84.5388ZM126.079 24.7263L140.079 72.8513L142.454 93.5388L129.267 94.2263L105.079 24.7263H126.079Z" fill="#84B9E1"/>
<path d="M230.329 61.8513H250.579C250.246 68.1013 248.538 73.6222 245.454 78.4138C242.413 83.1638 238.183 86.893 232.767 89.6013C227.35 92.268 220.913 93.6013 213.454 93.6013C207.496 93.6013 202.163 92.5805 197.454 90.5388C192.746 88.4972 188.746 85.5805 185.454 81.7888C182.204 77.9555 179.704 73.3513 177.954 67.9763C176.246 62.5597 175.392 56.4555 175.392 49.6638V44.1013C175.392 37.3097 176.288 31.2055 178.079 25.7888C179.871 20.3722 182.433 15.7472 185.767 11.9138C189.1 8.08049 193.1 5.14299 197.767 3.10132C202.433 1.05965 207.642 0.0388184 213.392 0.0388184C221.142 0.0388184 227.683 1.43465 233.017 4.22632C238.35 7.01799 242.475 10.8513 245.392 15.7263C248.35 20.6013 250.121 26.1638 250.704 32.4138H230.392C230.225 28.8722 229.558 25.893 228.392 23.4763C227.225 21.018 225.433 19.1638 223.017 17.9138C220.6 16.6638 217.392 16.0388 213.392 16.0388C210.475 16.0388 207.913 16.5805 205.704 17.6638C203.538 18.7472 201.725 20.4347 200.267 22.7263C198.85 25.018 197.788 27.9347 197.079 31.4763C196.371 34.9763 196.017 39.143 196.017 43.9763V49.6638C196.017 54.4555 196.329 58.6013 196.954 62.1013C197.579 65.6013 198.579 68.4972 199.954 70.7888C201.371 73.0805 203.183 74.7888 205.392 75.9138C207.6 77.0388 210.288 77.6013 213.454 77.6013C217.079 77.6013 220.1 77.0388 222.517 75.9138C224.933 74.7472 226.788 72.9972 228.079 70.6638C229.371 68.3305 230.121 65.393 230.329 61.8513Z" fill="#0165A0"/>
<path d="M258.079 59.2263V57.9138C258.079 52.9555 258.788 48.393 260.204 44.2263C261.621 40.018 263.704 36.3722 266.454 33.2888C269.204 30.2055 272.579 27.8097 276.579 26.1013C280.579 24.3513 285.163 23.4763 290.329 23.4763C295.579 23.4763 300.204 24.3513 304.204 26.1013C308.246 27.8097 311.642 30.2055 314.392 33.2888C317.142 36.3722 319.225 40.018 320.642 44.2263C322.058 48.393 322.767 52.9555 322.767 57.9138V59.2263C322.767 64.143 322.058 68.7055 320.642 72.9138C319.225 77.0805 317.142 80.7263 314.392 83.8513C311.642 86.9347 308.267 89.3305 304.267 91.0388C300.267 92.7472 295.663 93.6013 290.454 93.6013C285.288 93.6013 280.683 92.7472 276.642 91.0388C272.6 89.3305 269.204 86.9347 266.454 83.8513C263.704 80.7263 261.621 77.0805 260.204 72.9138C258.788 68.7055 258.079 64.143 258.079 59.2263ZM277.642 57.9138V59.2263C277.642 61.893 277.85 64.393 278.267 66.7263C278.725 69.0597 279.454 71.1013 280.454 72.8513C281.454 74.6013 282.767 75.9763 284.392 76.9763C286.058 77.9347 288.079 78.4138 290.454 78.4138C292.829 78.4138 294.829 77.9347 296.454 76.9763C298.079 75.9763 299.392 74.6013 300.392 72.8513C301.392 71.1013 302.1 69.0597 302.517 66.7263C302.975 64.393 303.204 61.893 303.204 59.2263V57.9138C303.204 55.2888 302.975 52.8305 302.517 50.5388C302.1 48.2055 301.392 46.143 300.392 44.3513C299.392 42.5597 298.058 41.1638 296.392 40.1638C294.767 39.1638 292.746 38.6638 290.329 38.6638C287.996 38.6638 286.017 39.1638 284.392 40.1638C282.767 41.1638 281.454 42.5597 280.454 44.3513C279.454 46.143 278.725 48.2055 278.267 50.5388C277.85 52.8305 277.642 55.2888 277.642 57.9138Z" fill="#0165A0"/>
<path d="M352.579 38.9138V92.3513H333.079V24.7263H351.392L352.579 38.9138ZM350.079 56.1638L345.142 56.2888C345.142 51.5388 345.704 47.1847 346.829 43.2263C347.996 39.2263 349.683 35.7472 351.892 32.7888C354.1 29.8305 356.829 27.5388 360.079 25.9138C363.371 24.2888 367.163 23.4763 371.454 23.4763C374.454 23.4763 377.183 23.9347 379.642 24.8513C382.1 25.7263 384.204 27.1222 385.954 29.0388C387.746 30.9138 389.121 33.3722 390.079 36.4138C391.038 39.4138 391.517 43.018 391.517 47.2263V92.3513H372.017V49.6013C372.017 46.6013 371.642 44.3305 370.892 42.7888C370.183 41.2055 369.142 40.1222 367.767 39.5388C366.392 38.9555 364.746 38.6638 362.829 38.6638C360.746 38.6638 358.892 39.1222 357.267 40.0388C355.683 40.9138 354.35 42.143 353.267 43.7263C352.183 45.3097 351.371 47.1638 350.829 49.2888C350.329 51.4138 350.079 53.7055 350.079 56.1638ZM389.517 55.1638L383.329 55.6638C383.329 51.0805 383.871 46.8305 384.954 42.9138C386.038 38.9972 387.663 35.6013 389.829 32.7263C391.996 29.8097 394.683 27.5388 397.892 25.9138C401.142 24.2888 404.913 23.4763 409.204 23.4763C412.371 23.4763 415.246 23.9347 417.829 24.8513C420.454 25.768 422.704 27.2472 424.579 29.2888C426.496 31.3305 427.975 34.018 429.017 37.3513C430.058 40.643 430.579 44.6847 430.579 49.4763V92.3513H410.954V49.4763C410.954 46.518 410.579 44.268 409.829 42.7263C409.121 41.1847 408.079 40.1222 406.704 39.5388C405.371 38.9555 403.767 38.6638 401.892 38.6638C399.808 38.6638 397.996 39.1013 396.454 39.9763C394.913 40.8097 393.621 41.9763 392.579 43.4763C391.538 44.9347 390.767 46.6638 390.267 48.6638C389.767 50.6638 389.517 52.8305 389.517 55.1638Z" fill="#0165A0"/>
</svg>
